#N canvas 674 281 182 250 10;
#X obj -69 167 outlet~;
#X obj -6 60 *~ 0;
#X obj -6 -9 noise~;
#X obj -6 14 samphold~;
#X obj 45 -49 inlet~;
#X obj 15 38 r \$1.dev;
#X obj -69 16 r \$1.mean;
#X msg -69 39 \$1 5;
#X obj -69 60 vline~;
#X obj -69 123 +~;
#X obj -69 144 tabread~ envelope;
#X connect 1 0 9 1;
#X connect 2 0 3 0;
#X connect 3 0 1 0;
#X connect 4 0 3 1;
#X connect 5 0 1 1;
#X connect 6 0 7 0;
#X connect 7 0 8 0;
#X connect 8 0 9 0;
#X connect 9 0 10 0;
#X connect 10 0 0 0;
