#N canvas 721 344 215 197 10;
#X obj -69 136 outlet~;
#X obj -6 80 *~ 0;
#X obj -6 12 noise~;
#X obj -6 34 samphold~;
#X obj 45 11 inlet~;
#X obj 15 58 r \$1.dev;
#X obj -69 36 r \$1.mean;
#X obj 10 112 outlet~;
#X msg -69 59 \$1 5;
#X obj -69 80 vline~;
#X obj -69 113 +~;
#X connect 1 0 7 0;
#X connect 1 0 10 1;
#X connect 2 0 3 0;
#X connect 3 0 1 0;
#X connect 4 0 3 1;
#X connect 5 0 1 1;
#X connect 6 0 8 0;
#X connect 8 0 9 0;
#X connect 9 0 10 0;
#X connect 10 0 0 0;
