#N canvas 569 22 291 407 10;
#X obj 56 153 outlet~;
#X obj 16 11 r samp.mean.\$1;
#X obj 130 34 r samp.dev.\$1;
#X obj 22 -34 block~ 1 0 0.125;
#X obj 109 56 *~ 0;
#X obj 109 -12 noise~;
#X obj 109 10 samphold~;
#X obj 160 -13 inlet~;
#X obj 16 35 sig~;
#X obj 16 56 samphold~;
#X obj 56 88 +~;
#X obj 56 128 lop~;
#X obj 77 109 r smoothing;
#X connect 1 0 8 0;
#X connect 2 0 4 1;
#X connect 4 0 10 1;
#X connect 5 0 6 0;
#X connect 6 0 4 0;
#X connect 7 0 6 1;
#X connect 7 0 9 1;
#X connect 8 0 9 0;
#X connect 9 0 10 0;
#X connect 10 0 11 0;
#X connect 11 0 0 0;
#X connect 12 0 11 1;
